<svg width="30" height="30" viewBox="0 0 30 30" fill="none" xmlns="http://www.w3.org/2000/svg">
<path d="M12.7755 11.7568L11.7 13.95L13.9 13.9457L12.8036 11.7568C12.8027 11.7548 12.8008 11.7531 12.7982 11.7519C12.7957 11.7507 12.7927 11.75 12.7896 11.75C12.7864 11.75 12.7834 11.7507 12.7809 11.7519C12.7783 11.7531 12.7765 11.7548 12.7755 11.7568Z" fill="#8D8D8D"/>
<path d="M14.9748 4.05005C8.89976 4.06802 3.98608 8.08156 4.00003 13.0131C4.00892 16.1843 6.05311 18.9635 9.12634 20.5389L8.10075 24.5222C8.07895 24.5885 8.07863 24.6603 8.09983 24.7268C8.12103 24.7933 8.16262 24.851 8.21838 24.8912C8.27413 24.9314 8.34105 24.952 8.40913 24.9498C8.47721 24.9477 8.54279 24.923 8.59606 24.8794L13.0468 21.7728C13.7022 21.867 14.3632 21.9132 15.025 21.9111C21.1 21.8932 26.0137 17.8806 26 12.9482C25.9862 8.01586 21.0499 4.03217 14.9748 4.05005ZM9.45364 15.3615C9.4546 15.7103 9.25363 15.9278 8.9289 15.9288C8.60418 15.9298 8.40244 15.7135 8.40149 15.3646L8.3905 11.4378L7.28378 11.4411C6.9366 11.4421 6.81265 11.1778 6.81198 10.9512C6.80992 10.8867 6.82055 10.8225 6.84324 10.7624C6.86593 10.7023 6.90021 10.6475 6.94402 10.6014C6.98782 10.5552 7.04026 10.5186 7.09817 10.4938C7.15608 10.469 7.21827 10.4565 7.28101 10.457L10.5459 10.4472C10.6087 10.4462 10.671 10.4583 10.7291 10.4827C10.7873 10.5071 10.84 10.5433 10.8841 10.5892C10.9283 10.635 10.963 10.6896 10.9861 10.7496C11.0093 10.8096 11.0204 10.8737 11.0188 10.9382C11.0194 11.1648 10.8967 11.4298 10.5487 11.4308L9.44265 11.4342L9.45364 15.3615ZM14.5463 15.9126C14.4314 15.9225 14.3169 15.8904 14.2228 15.822C14.1286 15.7535 14.0611 15.6532 14.0319 15.5386L13.7998 14.7997L11.6011 14.8062L11.3675 15.538C11.3425 15.6539 11.2776 15.7566 11.1849 15.8274C11.0922 15.8982 10.9777 15.9323 10.8625 15.9235C10.7964 15.9265 10.7304 15.9159 10.6684 15.8924C10.6063 15.8688 10.5494 15.8328 10.5011 15.7864C10.4527 15.74 10.4139 15.6841 10.3868 15.6221C10.3597 15.56 10.3449 15.4931 10.3433 15.4251C10.3441 15.3435 10.3604 15.2628 10.3911 15.1876L11.9068 11.0253C12.0153 10.7202 12.2774 10.3941 12.6877 10.393C13.0483 10.3919 13.3346 10.6202 13.4731 11.0194L14.9651 15.1662C14.9994 15.2549 15.0197 15.3486 15.0254 15.4438C15.0245 15.5071 15.0114 15.5696 14.9867 15.6276C14.9621 15.6856 14.9264 15.738 14.8817 15.7817C14.8371 15.8254 14.7845 15.8594 14.7269 15.8819C14.6693 15.9044 14.6079 15.9148 14.5463 15.9126ZM18.5873 15.3677C18.5848 15.4327 18.5698 15.4965 18.5433 15.5556C18.5167 15.6146 18.479 15.6676 18.4324 15.7117C18.3858 15.7557 18.3312 15.7898 18.2717 15.812C18.2122 15.8343 18.149 15.8442 18.0858 15.8413L16.1246 15.847C15.7806 15.8481 15.5739 15.6249 15.5729 15.2502L15.5608 10.9487C15.5599 10.6005 15.7609 10.3834 16.0856 10.3826C16.4102 10.3817 16.6121 10.5973 16.6132 10.9457L16.6241 14.8615L18.0831 14.8572C18.153 14.8537 18.2228 14.8652 18.288 14.8909C18.3533 14.9167 18.4127 14.9561 18.4624 15.0067C18.506 15.055 18.5395 15.1119 18.561 15.174C18.5825 15.236 18.5914 15.3019 18.5873 15.3677ZM22.9687 15.4628C22.9288 15.8567 22.5578 15.8884 22.4448 15.8887C22.4174 15.8888 22.3899 15.8875 22.3626 15.8847C22.1683 15.8651 22.0586 15.7397 21.8548 15.4586L20.467 13.5261L20.09 13.9234L20.0941 15.3793C20.0943 15.4491 20.0807 15.5183 20.0541 15.5826C20.0276 15.6469 19.9886 15.705 19.9396 15.7535C19.8906 15.8019 19.8326 15.8396 19.769 15.8643C19.7054 15.8891 19.6376 15.9003 19.5697 15.8974C19.2543 15.8984 19.0424 15.6912 19.0415 15.3823L19.029 10.9065C19.027 10.8353 19.0392 10.7644 19.065 10.6982C19.0908 10.6321 19.1295 10.5721 19.1788 10.522C19.2281 10.4719 19.2869 10.4327 19.3516 10.407C19.4162 10.3812 19.4853 10.3694 19.5546 10.3722C19.6242 10.3674 19.694 10.3777 19.7594 10.4025C19.8248 10.4274 19.8844 10.4661 19.9342 10.5163C19.984 10.5664 20.0229 10.6269 20.0484 10.6936C20.0739 10.7603 20.0853 10.8318 20.082 10.9034L20.0868 12.6362L21.9345 10.6454C21.9875 10.585 22.0519 10.5363 22.1238 10.5021C22.1956 10.4679 22.2734 10.4491 22.3525 10.4466C22.6068 10.4528 22.863 10.6256 22.8572 10.9437C22.8572 11.0924 22.7712 11.1908 22.5992 11.3867C22.5603 11.4311 22.5174 11.48 22.4709 11.5348L21.2078 12.852L22.7119 14.8638C22.8673 15.0709 22.9961 15.2423 22.9687 15.4628Z" fill="#8D8D8D"/>
</svg>
